<mxfile host="65bd71144e">
    <diagram id="Gjl8t911yl9O-eNmS-zH" name="第 1 页">
        <mxGraphModel dx="3400" dy="2910" grid="1" gridSize="10" guides="1" tooltips="1" connect="1" arrows="1" fold="1" page="1" pageScale="1" pageWidth="1920" pageHeight="1200" background="none" math="0" shadow="0">
            <root>
                <mxCell id="0"/>
                <mxCell id="1" parent="0"/>
                <mxCell id="45" value="" style="group" parent="1" vertex="1" connectable="0">
                    <mxGeometry x="80" y="-400.00000000000006" width="1680" height="1573.08" as="geometry"/>
                </mxCell>
                <mxCell id="4" value="Test" style="rounded=0;whiteSpace=wrap;html=1;hachureGap=4;fontFamily=Fira Code;fontSize=20;verticalAlign=top;" parent="45" vertex="1">
                    <mxGeometry width="120" height="43.07692307692307" as="geometry"/>
                </mxCell>
                <mxCell id="5" value="&amp;nbsp;virtual task run_phase(...) begin&lt;br&gt;&amp;nbsp; &amp;nbsp; &amp;nbsp;&lt;font color=&quot;#ffff33&quot;&gt;Seq&amp;nbsp; seq = Seq::type_id::create(&quot;seq&quot;)&lt;/font&gt;&lt;br&gt;&lt;br&gt;&amp;nbsp; &amp;nbsp; &amp;nbsp;phase.raise_objection(this);&lt;br&gt;&lt;br&gt;&amp;nbsp; &amp;nbsp; &amp;nbsp;&lt;font color=&quot;#ffff33&quot;&gt;seq.start(env.agt.seqr);&lt;/font&gt;&lt;br&gt;&lt;br&gt;&amp;nbsp; &amp;nbsp; &amp;nbsp;phase.drop_objection(this);&lt;br&gt;&amp;nbsp;end" style="rounded=0;whiteSpace=wrap;html=1;hachureGap=4;fontFamily=Fira Code;fontSize=20;verticalAlign=top;align=left;" parent="45" vertex="1">
                    <mxGeometry y="43.08000000000004" width="1680" height="1530" as="geometry"/>
                </mxCell>
                <mxCell id="39" value="" style="rounded=0;whiteSpace=wrap;html=1;sketch=0;hachureGap=4;jiggle=2;curveFitting=1;fontFamily=Fira Code;fontSize=20;align=left;verticalAlign=top;" parent="45" vertex="1">
                    <mxGeometry x="440" y="703.08" width="1130" height="850" as="geometry"/>
                </mxCell>
                <mxCell id="37" value="" style="rounded=0;whiteSpace=wrap;html=1;sketch=0;hachureGap=4;jiggle=2;curveFitting=1;fontFamily=Fira Code;fontSize=20;align=left;verticalAlign=top;" parent="45" vertex="1">
                    <mxGeometry x="490" y="773.08" width="1010" height="730" as="geometry"/>
                </mxCell>
                <mxCell id="14" value="Drv" style="rounded=0;whiteSpace=wrap;html=1;hachureGap=4;fontFamily=Fira Code;fontSize=20;verticalAlign=top;" parent="45" vertex="1">
                    <mxGeometry x="571" y="1053.08" width="120" height="40" as="geometry"/>
                </mxCell>
                <mxCell id="15" value="virtual task run_phase(...) begin&lt;br&gt;&amp;nbsp; &amp;nbsp; forever begin&lt;br&gt;&amp;nbsp; &amp;nbsp; &amp;nbsp; &amp;nbsp; &lt;font color=&quot;#ffff33&quot;&gt;seq_item_port.get_next_item(req);&lt;br&gt;&lt;/font&gt;&lt;br&gt;&amp;nbsp; &amp;nbsp; &amp;nbsp; &amp;nbsp; &amp;lt;driver vif&amp;gt;&lt;br&gt;&lt;br&gt;&amp;nbsp; &amp;nbsp; &amp;nbsp; &amp;nbsp; &lt;font color=&quot;#33ff33&quot;&gt;rsp = Tr::type_id::create(&quot;&lt;/font&gt;&lt;span style=&quot;color: rgb(51, 255, 51);&quot;&gt;rsp&lt;/span&gt;&lt;font color=&quot;#33ff33&quot;&gt;&quot;);&lt;br&gt;&amp;nbsp; &amp;nbsp; &amp;nbsp; &amp;nbsp; &lt;/font&gt;&amp;lt;change rsp data: eg.&lt;font color=&quot;#33ff33&quot;&gt; $cast(rsp, req.clone);&lt;/font&gt;&amp;gt;&lt;br&gt;&lt;font color=&quot;#33ff33&quot;&gt;&amp;nbsp; &amp;nbsp; &amp;nbsp; &amp;nbsp; rsp.set_id_info(req);&lt;/font&gt;&lt;br&gt;&amp;nbsp; &amp;nbsp; &amp;nbsp; &amp;nbsp; &lt;font color=&quot;#33ff33&quot;&gt;seq_item_port.put_response(rsp);&lt;/font&gt;&lt;br&gt;&amp;nbsp; &amp;nbsp; &amp;nbsp; &amp;nbsp;&amp;nbsp;&lt;br&gt;&amp;nbsp; &amp;nbsp; &amp;nbsp; &amp;nbsp;&amp;nbsp;&lt;font color=&quot;#ffff33&quot;&gt;seq_item_port.item_done();&lt;/font&gt;&lt;br&gt;&amp;nbsp; &amp;nbsp; end&lt;br&gt;endtask" style="rounded=0;whiteSpace=wrap;html=1;hachureGap=4;fontFamily=Fira Code;fontSize=20;verticalAlign=top;align=left;" parent="45" vertex="1">
                    <mxGeometry x="571" y="1093.08" width="880" height="360" as="geometry"/>
                </mxCell>
                <mxCell id="6" value="" style="rounded=0;whiteSpace=wrap;html=1;hachureGap=4;fontFamily=Fira Code;fontSize=20;verticalAlign=top;align=left;" parent="45" vertex="1">
                    <mxGeometry x="571" y="853.08" width="600" height="120" as="geometry"/>
                </mxCell>
                <mxCell id="9" value="Seqr" style="rounded=0;whiteSpace=wrap;html=1;hachureGap=4;fontFamily=Fira Code;fontSize=20;verticalAlign=top;" parent="45" vertex="1">
                    <mxGeometry x="571" y="813.08" width="120" height="40" as="geometry"/>
                </mxCell>
                <mxCell id="7" value="&lt;div&gt;&amp;nbsp;virtual task &lt;font color=&quot;#ffff33&quot;&gt;body()&lt;/font&gt;;&lt;/div&gt;&lt;div&gt;&amp;nbsp; &amp;nbsp; &amp;nbsp;if (starting_phase != null) starting_phase.raise_objection(this);&amp;nbsp;&lt;/div&gt;&lt;div&gt;&lt;br&gt;&lt;/div&gt;&lt;div&gt;&amp;nbsp; &amp;nbsp; &amp;nbsp;repeat(tr_num) begin&lt;/div&gt;&lt;div&gt;&amp;nbsp; &amp;nbsp; &amp;nbsp; &amp;nbsp; &amp;nbsp;&lt;font color=&quot;#ffff33&quot;&gt;Tr tr = Tr::type_id::create(&quot;tr&quot;);&lt;/font&gt;&lt;/div&gt;&lt;div&gt;&amp;nbsp;&lt;/div&gt;&lt;div&gt;&amp;nbsp; &amp;nbsp; &amp;nbsp; &amp;nbsp; &amp;nbsp;&lt;font color=&quot;#ffff33&quot;&gt;start_item(tr);&lt;/font&gt;&lt;/div&gt;&lt;div&gt;&amp;nbsp; &amp;nbsp; &amp;nbsp; &amp;nbsp; &amp;nbsp;if (!tr.randomize()) `uvm_error(&quot;...&quot;, &quot;...&quot;)&lt;/div&gt;&lt;div&gt;&amp;nbsp; &amp;nbsp; &amp;nbsp; &amp;nbsp; &amp;nbsp;&lt;font color=&quot;#ffff33&quot;&gt;finish_item(tr);&lt;/font&gt;&lt;/div&gt;&lt;div&gt;&lt;font color=&quot;#ffff33&quot;&gt;&lt;br&gt;&lt;/font&gt;&lt;/div&gt;&lt;div&gt;&lt;font color=&quot;#ffff33&quot;&gt;&amp;nbsp; &amp;nbsp; &amp;nbsp; &amp;nbsp; &amp;nbsp;&lt;/font&gt;&lt;font color=&quot;#33ff33&quot;&gt;get_response(rsp);&lt;/font&gt;&lt;/div&gt;&lt;div&gt;&amp;nbsp; &amp;nbsp; &amp;nbsp;end&lt;/div&gt;&lt;div&gt;&amp;nbsp;&lt;/div&gt;&lt;div&gt;&amp;nbsp; &amp;nbsp; &amp;nbsp;if (starting_phase != null) starting_phase.drop_objection(this);&lt;/div&gt;&lt;div&gt;&lt;br&gt;&lt;/div&gt;&lt;div&gt;&amp;nbsp;endtask&lt;/div&gt;" style="rounded=0;whiteSpace=wrap;html=1;hachureGap=4;fontFamily=Fira Code;fontSize=20;verticalAlign=top;align=left;" parent="45" vertex="1">
                    <mxGeometry x="570" y="153.08000000000004" width="880" height="400" as="geometry"/>
                </mxCell>
                <mxCell id="36" style="edgeStyle=orthogonalEdgeStyle;sketch=0;hachureGap=4;jiggle=2;curveFitting=1;html=1;exitX=0.75;exitY=0;exitDx=0;exitDy=0;entryX=0.75;entryY=1;entryDx=0;entryDy=0;fontFamily=Architects Daughter;fontSource=https%3A%2F%2Ffonts.googleapis.com%2Fcss%3Ffamily%3DArchitects%2BDaughter;fontSize=16;fontColor=#F0F0F0;startArrow=none;startFill=0;endArrow=classic;endFill=1;endSize=6;" parent="45" source="15" target="7" edge="1">
                    <mxGeometry relative="1" as="geometry"/>
                </mxCell>
                <mxCell id="8" value="Seq" style="rounded=0;whiteSpace=wrap;html=1;hachureGap=4;fontFamily=Fira Code;fontSize=20;verticalAlign=top;" parent="45" vertex="1">
                    <mxGeometry x="570" y="113.08000000000004" width="120" height="40" as="geometry"/>
                </mxCell>
                <mxCell id="32" style="edgeStyle=orthogonalEdgeStyle;sketch=0;hachureGap=4;jiggle=2;curveFitting=1;html=1;exitX=0.5;exitY=1;exitDx=0;exitDy=0;fontFamily=Architects Daughter;fontSource=https%3A%2F%2Ffonts.googleapis.com%2Fcss%3Ffamily%3DArchitects%2BDaughter;fontSize=16;fontColor=#33FF33;entryX=0.205;entryY=0;entryDx=0;entryDy=0;entryPerimeter=0;endSize=6;" parent="45" source="20" edge="1">
                    <mxGeometry relative="1" as="geometry">
                        <mxPoint x="790.4000000000001" y="1093.08" as="targetPoint"/>
                    </mxGeometry>
                </mxCell>
                <mxCell id="33" style="edgeStyle=orthogonalEdgeStyle;sketch=0;hachureGap=4;jiggle=2;curveFitting=1;html=1;exitX=0.5;exitY=0;exitDx=0;exitDy=0;entryX=0.205;entryY=1.001;entryDx=0;entryDy=0;entryPerimeter=0;fontFamily=Architects Daughter;fontSource=https%3A%2F%2Ffonts.googleapis.com%2Fcss%3Ffamily%3DArchitects%2BDaughter;fontSize=16;fontColor=#33FF33;startArrow=classic;startFill=1;endArrow=none;endFill=0;endSize=6;" parent="45" source="20" edge="1">
                    <mxGeometry relative="1" as="geometry">
                        <mxPoint x="790.4000000000001" y="553.5600000000001" as="targetPoint"/>
                    </mxGeometry>
                </mxCell>
                <mxCell id="20" value="items_fifo" style="rounded=0;whiteSpace=wrap;html=1;hachureGap=4;fontFamily=Fira Code;fontSize=20;verticalAlign=top;" parent="45" vertex="1">
                    <mxGeometry x="690" y="893.08" width="200" height="40" as="geometry"/>
                </mxCell>
                <mxCell id="35" style="edgeStyle=orthogonalEdgeStyle;sketch=0;hachureGap=4;jiggle=2;curveFitting=1;html=1;exitX=0.5;exitY=0;exitDx=0;exitDy=0;entryX=0.5;entryY=1;entryDx=0;entryDy=0;fontFamily=Architects Daughter;fontSource=https%3A%2F%2Ffonts.googleapis.com%2Fcss%3Ffamily%3DArchitects%2BDaughter;fontSize=16;fontColor=#F0F0F0;startArrow=none;startFill=0;endArrow=classic;endFill=1;endSize=6;" parent="45" source="21" target="7" edge="1">
                    <mxGeometry relative="1" as="geometry"/>
                </mxCell>
                <mxCell id="21" value="item_done_flag" style="rounded=0;whiteSpace=wrap;html=1;hachureGap=4;fontFamily=Fira Code;fontSize=20;verticalAlign=top;" parent="45" vertex="1">
                    <mxGeometry x="911" y="893.08" width="200" height="40" as="geometry"/>
                </mxCell>
                <mxCell id="34" style="edgeStyle=orthogonalEdgeStyle;sketch=0;hachureGap=4;jiggle=2;curveFitting=1;html=1;exitX=0.5;exitY=0;exitDx=0;exitDy=0;entryX=0.5;entryY=1;entryDx=0;entryDy=0;fontFamily=Architects Daughter;fontSource=https%3A%2F%2Ffonts.googleapis.com%2Fcss%3Ffamily%3DArchitects%2BDaughter;fontSize=16;fontColor=#F0F0F0;startArrow=none;startFill=0;endArrow=classic;endFill=1;endSize=6;" parent="45" source="15" target="21" edge="1">
                    <mxGeometry relative="1" as="geometry"/>
                </mxCell>
                <mxCell id="38" value="Agt" style="rounded=0;whiteSpace=wrap;html=1;hachureGap=4;fontFamily=Fira Code;fontSize=20;verticalAlign=top;" parent="45" vertex="1">
                    <mxGeometry x="490" y="733.08" width="120" height="40" as="geometry"/>
                </mxCell>
                <mxCell id="40" value="Env" style="rounded=0;whiteSpace=wrap;html=1;hachureGap=4;fontFamily=Fira Code;fontSize=20;verticalAlign=top;" parent="45" vertex="1">
                    <mxGeometry x="440" y="663.08" width="120" height="40" as="geometry"/>
                </mxCell>
                <mxCell id="60" value="" style="group" vertex="1" connectable="0" parent="1">
                    <mxGeometry x="80" y="-1120" width="1480" height="560" as="geometry"/>
                </mxCell>
                <mxCell id="50" value="Env" style="rounded=0;whiteSpace=wrap;html=1;hachureGap=4;fontFamily=Fira Code;fontSize=20;verticalAlign=top;align=center;" parent="60" vertex="1">
                    <mxGeometry width="440" height="560" as="geometry"/>
                </mxCell>
                <mxCell id="47" value="&amp;nbsp;Ref" style="rounded=0;whiteSpace=wrap;html=1;hachureGap=4;fontFamily=Fira Code;fontSize=20;verticalAlign=top;align=left;" parent="60" vertex="1">
                    <mxGeometry x="40" y="80" width="360" height="80" as="geometry"/>
                </mxCell>
                <mxCell id="43" value="&lt;br&gt;&amp;nbsp;Agent" style="rounded=0;whiteSpace=wrap;html=1;hachureGap=4;fontFamily=Fira Code;fontSize=20;verticalAlign=top;align=left;" parent="60" vertex="1">
                    <mxGeometry x="40" y="280" width="360" height="240" as="geometry"/>
                </mxCell>
                <mxCell id="41" value="MonApb" style="rounded=0;whiteSpace=wrap;html=1;hachureGap=4;fontFamily=Fira Code;fontSize=20;verticalAlign=middle;" parent="60" vertex="1">
                    <mxGeometry x="160" y="400" width="200" height="80" as="geometry"/>
                </mxCell>
                <mxCell id="42" value="put_port" style="rounded=0;whiteSpace=wrap;html=1;hachureGap=4;fontFamily=Fira Code;fontSize=20;verticalAlign=top;" parent="60" vertex="1">
                    <mxGeometry x="200" y="380" width="120" height="43.07692307692307" as="geometry"/>
                </mxCell>
                <mxCell id="44" value="put_export" style="shape=process;whiteSpace=wrap;html=1;backgroundOutline=1;hachureGap=4;fontFamily=Fira Code;fontSize=20;" parent="60" vertex="1">
                    <mxGeometry x="160" y="260" width="200" height="40" as="geometry"/>
                </mxCell>
                <mxCell id="48" style="edgeStyle=none;hachureGap=4;html=1;exitX=0.5;exitY=0;exitDx=0;exitDy=0;entryX=0.5;entryY=1;entryDx=0;entryDy=0;fontFamily=Fira Code;fontSize=16;endArrow=classic;endFill=1;" parent="60" source="42" target="44" edge="1">
                    <mxGeometry relative="1" as="geometry"/>
                </mxCell>
                <mxCell id="46" value="put_imp" style="ellipse;whiteSpace=wrap;html=1;sketch=0;hachureGap=4;jiggle=2;curveFitting=1;fontFamily=Fira Code;fontSize=20;" parent="60" vertex="1">
                    <mxGeometry x="200" y="140" width="120" height="40" as="geometry"/>
                </mxCell>
                <mxCell id="49" style="edgeStyle=none;hachureGap=4;html=1;exitX=0.5;exitY=0;exitDx=0;exitDy=0;entryX=0.5;entryY=1;entryDx=0;entryDy=0;fontFamily=Fira Code;fontSize=16;endArrow=classic;endFill=1;" parent="60" source="44" target="46" edge="1">
                    <mxGeometry relative="1" as="geometry"/>
                </mxCell>
                <mxCell id="51" value="&lt;div&gt;&amp;nbsp;uvm_blocking_put_port #(Tr) put_port = new(&quot;put_port&quot;, this);&lt;/div&gt;&lt;div&gt;&amp;nbsp;run_phase --&amp;gt; put_port.put(tr);&lt;/div&gt;" style="rounded=0;whiteSpace=wrap;html=1;hachureGap=4;fontFamily=Fira Code;fontSize=20;verticalAlign=middle;align=left;" parent="60" vertex="1">
                    <mxGeometry x="600" y="423.08000000000004" width="880" height="80" as="geometry"/>
                </mxCell>
                <mxCell id="53" style="edgeStyle=orthogonalEdgeStyle;sketch=0;hachureGap=4;jiggle=2;curveFitting=1;html=1;exitX=1;exitY=0.5;exitDx=0;exitDy=0;entryX=0;entryY=0.5;entryDx=0;entryDy=0;fontFamily=Fira Code;fontSize=16;endArrow=classic;endFill=1;" parent="60" source="41" target="51" edge="1">
                    <mxGeometry relative="1" as="geometry"/>
                </mxCell>
                <mxCell id="52" value="&lt;div&gt;&amp;nbsp;uvm_blocking_put_export #(Tr) put_export;&lt;/div&gt;&lt;div&gt;&amp;nbsp;connect_phase&amp;nbsp; --&amp;gt; mon.put_port.connect(put_export);&lt;/div&gt;" style="rounded=0;whiteSpace=wrap;html=1;hachureGap=4;fontFamily=Fira Code;fontSize=20;verticalAlign=middle;align=left;" parent="60" vertex="1">
                    <mxGeometry x="600" y="300" width="880" height="80" as="geometry"/>
                </mxCell>
                <mxCell id="54" style="edgeStyle=orthogonalEdgeStyle;sketch=0;hachureGap=4;jiggle=2;curveFitting=1;html=1;exitX=1;exitY=0.25;exitDx=0;exitDy=0;entryX=0;entryY=0.5;entryDx=0;entryDy=0;fontFamily=Fira Code;fontSize=16;endArrow=classic;endFill=1;" parent="60" source="43" target="52" edge="1">
                    <mxGeometry relative="1" as="geometry"/>
                </mxCell>
                <mxCell id="56" value="&lt;div&gt;&amp;nbsp;uvm_blocking_put_imp #(TrApb, RefApb) put_imp = new(&quot;put_imp&quot;, this);&lt;/div&gt;&lt;div&gt;&amp;nbsp;task put (Tr tr) begin&lt;/div&gt;&lt;div&gt;&amp;nbsp; &amp;nbsp; &amp;nbsp;......&lt;/div&gt;&lt;div&gt;&amp;nbsp;end&lt;/div&gt;" style="rounded=0;whiteSpace=wrap;html=1;hachureGap=4;fontFamily=Fira Code;fontSize=20;verticalAlign=middle;align=left;" parent="60" vertex="1">
                    <mxGeometry x="600" y="60" width="880" height="120" as="geometry"/>
                </mxCell>
                <mxCell id="57" style="edgeStyle=orthogonalEdgeStyle;sketch=0;hachureGap=4;jiggle=2;curveFitting=1;html=1;exitX=1;exitY=0.5;exitDx=0;exitDy=0;fontFamily=Fira Code;fontSize=16;endArrow=classic;endFill=1;" parent="60" source="47" target="56" edge="1">
                    <mxGeometry relative="1" as="geometry"/>
                </mxCell>
                <mxCell id="58" value="&amp;nbsp;connect_phase --&amp;gt; agent.put_export.connect(ref.put_imp);" style="rounded=0;whiteSpace=wrap;html=1;hachureGap=4;fontFamily=Fira Code;fontSize=20;verticalAlign=middle;align=left;" parent="60" vertex="1">
                    <mxGeometry x="600" y="220" width="880" height="40" as="geometry"/>
                </mxCell>
                <mxCell id="59" style="edgeStyle=orthogonalEdgeStyle;sketch=0;hachureGap=4;jiggle=2;curveFitting=1;html=1;exitX=1;exitY=0.5;exitDx=0;exitDy=0;entryX=0;entryY=0.5;entryDx=0;entryDy=0;fontFamily=Fira Code;fontSize=16;endArrow=classic;endFill=1;" parent="60" source="50" target="58" edge="1">
                    <mxGeometry relative="1" as="geometry"/>
                </mxCell>
            </root>
        </mxGraphModel>
    </diagram>
</mxfile>